<?xml version="1.0" standalone="no"?>
<!DOCTYPE svg PUBLIC "-//W3C//DTD SVG 20010904//EN"
 "http://www.w3.org/TR/2001/REC-SVG-20010904/DTD/svg10.dtd">
<svg version="1.0" xmlns="http://www.w3.org/2000/svg"
 width="300.000000pt" height="66.000000pt" viewBox="0 0 300.000000 66.000000"
 preserveAspectRatio="xMidYMid meet">

<g transform="translate(0.000000,66.000000) scale(0.100000,-0.100000)"
fill="#000000" stroke="none">
<path d="M110 375 l0 -145 95 0 c95 0 95 0 95 25 0 24 -2 25 -70 25 l-70 0 0
120 0 120 -25 0 -25 0 0 -145z"/>
<path d="M780 495 c0 -18 5 -25 20 -25 15 0 20 7 20 25 0 18 -5 25 -20 25 -15
0 -20 -7 -20 -25z"/>
<path d="M1290 375 c0 -138 1 -145 20 -145 19 0 20 7 20 145 0 138 -1 145 -20
145 -19 0 -20 -7 -20 -145z"/>
<path d="M1559 493 c-6 -15 -30 -79 -55 -141 -24 -63 -44 -116 -44 -118 0 -2
11 -4 24 -4 20 0 27 8 38 43 l15 42 64 3 64 3 15 -43 c12 -35 20 -44 43 -46
15 -2 27 -1 27 1 0 2 -26 67 -59 143 -56 134 -59 139 -90 142 -26 3 -33 -1
-42 -25z m51 -58 c0 -7 4 -15 9 -17 5 -1 13 -15 16 -30 7 -27 6 -28 -34 -28
-23 0 -41 3 -41 7 0 4 7 27 16 50 15 40 34 50 34 18z"/>
<path d="M2650 375 l0 -145 25 0 25 0 0 145 0 145 -25 0 -25 0 0 -145z"/>
<path d="M355 427 c-32 -27 -44 -92 -25 -136 18 -44 72 -67 121 -52 50 15 69
44 69 104 0 40 -5 53 -29 78 -38 37 -97 40 -136 6z m109 -39 c43 -61 -22 -150
-74 -103 -23 21 -28 93 -8 113 20 20 65 14 82 -10z"/>
<path d="M575 426 c-46 -46 -45 -124 1 -167 20 -18 36 -24 70 -23 48 1 53 -5
26 -29 -25 -22 -48 -21 -79 3 -32 25 -43 25 -43 2 0 -56 106 -78 154 -33 25
24 26 28 26 147 l0 122 -66 1 c-56 1 -68 -2 -89 -23z m105 -35 c15 -30 12 -82
-7 -103 -36 -40 -83 -8 -83 57 0 22 5 46 12 53 19 19 66 15 78 -7z"/>
<path d="M780 340 c0 -103 1 -110 20 -110 19 0 20 7 20 110 0 103 -1 110 -20
110 -19 0 -20 -7 -20 -110z"/>
<path d="M899 437 c-40 -30 -53 -122 -24 -164 40 -57 141 -47 163 16 10 29 9
31 -13 31 -15 0 -26 -7 -30 -19 -15 -49 -80 -31 -91 24 -12 66 56 117 87 66 7
-11 19 -16 31 -13 24 6 23 24 -5 50 -26 25 -91 30 -118 9z"/>
<path d="M1085 425 c-14 -13 -25 -29 -25 -35 0 -16 47 -12 54 6 8 21 80 15 84
-7 2 -13 -8 -18 -45 -24 -72 -10 -95 -28 -91 -73 4 -50 41 -69 101 -53 27 6
43 7 45 1 2 -6 13 -10 25 -10 22 0 22 2 15 88 -3 48 -7 90 -7 94 -3 22 -37 38
-82 38 -40 0 -55 -5 -74 -25z m113 -112 c-5 -26 -54 -51 -75 -37 -39 25 -14
52 50 53 22 1 28 -3 25 -16z"/>
<path d="M1760 299 l0 -149 25 0 c23 0 25 3 25 50 0 49 0 49 25 38 18 -8 32
-8 55 2 44 18 60 47 60 108 0 43 -5 58 -24 77 -21 21 -33 24 -95 23 l-71 0 0
-149z m130 101 c12 -12 20 -33 20 -55 0 -35 -28 -75 -52 -75 -48 0 -68 105
-26 134 29 20 34 20 58 -4z"/>
<path d="M1990 299 c0 -142 1 -149 20 -149 17 0 20 7 20 49 l0 50 29 -10 c92
-32 159 114 86 187 -20 20 -33 23 -89 22 l-66 -1 0 -148z m120 101 c36 -36 16
-130 -27 -130 -50 0 -73 90 -33 130 11 11 25 20 30 20 6 0 19 -9 30 -20z"/>
<path d="M2229 421 c-33 -34 -39 -92 -14 -141 32 -61 139 -61 170 1 15 28 15
29 -8 29 -12 0 -30 -9 -40 -20 -21 -25 -49 -26 -70 -2 -32 35 -21 42 59 42
l77 0 -6 38 c-13 81 -109 111 -168 53z m109 -23 c22 -22 13 -28 -38 -28 -27 0
-50 4 -50 8 0 16 25 32 50 32 14 0 31 -5 38 -12z"/>
<path d="M2450 430 c-26 -26 -26 -50 0 -50 11 0 23 7 26 15 4 10 20 15 45 15
32 0 39 -4 39 -19 0 -14 -10 -20 -37 -25 -64 -11 -93 -27 -100 -54 -13 -52 43
-91 108 -74 23 6 41 6 45 1 3 -5 14 -9 26 -9 16 0 19 5 14 23 -3 12 -6 52 -6
90 0 86 -17 107 -90 107 -37 0 -55 -5 -70 -20z m110 -120 c0 -38 -81 -55 -88
-17 -4 18 26 35 66 36 15 1 22 -5 22 -19z"/>
<path d="M2757 432 c-39 -43 -13 -90 58 -107 43 -10 58 -24 44 -41 -17 -21
-57 -17 -71 6 -7 11 -23 20 -35 20 -27 0 -27 -1 -12 -34 32 -69 169 -48 169
25 0 33 -24 52 -88 69 -48 12 -52 33 -7 38 19 3 33 -2 42 -13 14 -20 43 -13
43 9 0 42 -111 64 -143 28z"/>
</g>
</svg>
